<mxfile host="Electron" modified="2023-07-07T11:56:30.887Z" agent="Mozilla/5.0 (Macintosh; Intel Mac OS X 10_15_7) AppleWebKit/537.36 (KHTML, like Gecko) draw.io/21.6.1 Chrome/112.0.5615.204 Electron/24.6.1 Safari/537.36" etag="KO32NZ1GFWubqZQ8_IX9" version="21.6.1" type="device">
  <diagram name="Page-1" id="PbMjbLCWZwQwSfe9cThy">
    <mxGraphModel dx="954" dy="-1611" grid="1" gridSize="10" guides="1" tooltips="1" connect="1" arrows="1" fold="1" page="1" pageScale="1" pageWidth="850" pageHeight="1100" math="0" shadow="0">
      <root>
        <mxCell id="0" />
        <mxCell id="1" parent="0" />
        <mxCell id="6SsORGKHlJ1H8XkOjhuN-1" value="" style="group" vertex="1" connectable="0" parent="1">
          <mxGeometry x="375" y="2760" width="500" height="490" as="geometry" />
        </mxCell>
        <mxCell id="6SsORGKHlJ1H8XkOjhuN-2" value="" style="rounded=0;whiteSpace=wrap;html=1;" vertex="1" parent="6SsORGKHlJ1H8XkOjhuN-1">
          <mxGeometry width="500" height="490" as="geometry" />
        </mxCell>
        <mxCell id="6SsORGKHlJ1H8XkOjhuN-3" value="" style="endArrow=none;html=1;rounded=0;entryX=1;entryY=0;entryDx=0;entryDy=0;exitX=0;exitY=1;exitDx=0;exitDy=0;" edge="1" parent="6SsORGKHlJ1H8XkOjhuN-1" source="6SsORGKHlJ1H8XkOjhuN-2" target="6SsORGKHlJ1H8XkOjhuN-2">
          <mxGeometry width="50" height="50" relative="1" as="geometry">
            <mxPoint x="455" y="3710" as="sourcePoint" />
            <mxPoint x="505" y="3660" as="targetPoint" />
          </mxGeometry>
        </mxCell>
        <mxCell id="6SsORGKHlJ1H8XkOjhuN-4" value="" style="endArrow=none;html=1;rounded=0;entryX=0;entryY=0;entryDx=0;entryDy=0;exitX=1;exitY=1;exitDx=0;exitDy=0;" edge="1" parent="6SsORGKHlJ1H8XkOjhuN-1" source="6SsORGKHlJ1H8XkOjhuN-2" target="6SsORGKHlJ1H8XkOjhuN-2">
          <mxGeometry width="50" height="50" relative="1" as="geometry">
            <mxPoint x="905" y="3920" as="sourcePoint" />
            <mxPoint x="-45" y="3430" as="targetPoint" />
          </mxGeometry>
        </mxCell>
        <mxCell id="6SsORGKHlJ1H8XkOjhuN-5" value="" style="endArrow=none;html=1;rounded=0;entryX=0;entryY=0;entryDx=0;entryDy=0;exitX=1;exitY=1;exitDx=0;exitDy=0;" edge="1" parent="6SsORGKHlJ1H8XkOjhuN-1" source="6SsORGKHlJ1H8XkOjhuN-2" target="6SsORGKHlJ1H8XkOjhuN-2">
          <mxGeometry width="50" height="50" relative="1" as="geometry">
            <mxPoint x="824" y="3403" as="sourcePoint" />
            <mxPoint x="325" y="2920" as="targetPoint" />
          </mxGeometry>
        </mxCell>
        <mxCell id="6SsORGKHlJ1H8XkOjhuN-6" value="" style="group" vertex="1" connectable="0" parent="6SsORGKHlJ1H8XkOjhuN-1">
          <mxGeometry width="500" height="490" as="geometry" />
        </mxCell>
        <mxCell id="6SsORGKHlJ1H8XkOjhuN-7" value="" style="group" vertex="1" connectable="0" parent="6SsORGKHlJ1H8XkOjhuN-6">
          <mxGeometry x="385" y="370" width="100" height="100" as="geometry" />
        </mxCell>
        <mxCell id="6SsORGKHlJ1H8XkOjhuN-8" value="" style="whiteSpace=wrap;html=1;aspect=fixed;" vertex="1" parent="6SsORGKHlJ1H8XkOjhuN-7">
          <mxGeometry width="100" height="100" as="geometry" />
        </mxCell>
        <mxCell id="6SsORGKHlJ1H8XkOjhuN-9" value="" style="endArrow=none;html=1;rounded=0;exitX=0;exitY=1;exitDx=0;exitDy=0;entryX=1;entryY=0;entryDx=0;entryDy=0;" edge="1" parent="6SsORGKHlJ1H8XkOjhuN-7" source="6SsORGKHlJ1H8XkOjhuN-8" target="6SsORGKHlJ1H8XkOjhuN-8">
          <mxGeometry width="50" height="50" relative="1" as="geometry">
            <mxPoint x="295" y="50" as="sourcePoint" />
            <mxPoint x="345" as="targetPoint" />
            <Array as="points" />
          </mxGeometry>
        </mxCell>
        <mxCell id="6SsORGKHlJ1H8XkOjhuN-10" value="" style="endArrow=none;html=1;rounded=0;exitX=1;exitY=1;exitDx=0;exitDy=0;entryX=0;entryY=0;entryDx=0;entryDy=0;" edge="1" parent="6SsORGKHlJ1H8XkOjhuN-7" source="6SsORGKHlJ1H8XkOjhuN-8" target="6SsORGKHlJ1H8XkOjhuN-8">
          <mxGeometry width="50" height="50" relative="1" as="geometry">
            <mxPoint x="195" y="50" as="sourcePoint" />
            <mxPoint x="245" as="targetPoint" />
          </mxGeometry>
        </mxCell>
        <mxCell id="6SsORGKHlJ1H8XkOjhuN-11" value="" style="endArrow=none;html=1;rounded=0;strokeWidth=4;" edge="1" parent="1">
          <mxGeometry width="50" height="50" relative="1" as="geometry">
            <mxPoint x="375" y="2740" as="sourcePoint" />
            <mxPoint x="875" y="2740" as="targetPoint" />
          </mxGeometry>
        </mxCell>
        <mxCell id="6SsORGKHlJ1H8XkOjhuN-12" value="" style="endArrow=none;html=1;rounded=0;strokeWidth=4;" edge="1" parent="1">
          <mxGeometry width="50" height="50" relative="1" as="geometry">
            <mxPoint x="372.5" y="4510" as="sourcePoint" />
            <mxPoint x="872.5" y="4510" as="targetPoint" />
          </mxGeometry>
        </mxCell>
        <mxCell id="6SsORGKHlJ1H8XkOjhuN-13" value="" style="endArrow=none;html=1;rounded=0;strokeWidth=4;" edge="1" parent="1">
          <mxGeometry width="50" height="50" relative="1" as="geometry">
            <mxPoint x="375" y="3270" as="sourcePoint" />
            <mxPoint x="875" y="3270" as="targetPoint" />
          </mxGeometry>
        </mxCell>
        <mxCell id="6SsORGKHlJ1H8XkOjhuN-14" value="&lt;div style=&quot;margin-bottom: 12px; color: rgb(32, 33, 36); font-family: &amp;quot;Google Sans&amp;quot;, arial, sans-serif; background-color: rgb(255, 255, 255); font-size: 22px;&quot; role=&quot;heading&quot; aria-level=&quot;3&quot; class=&quot;co8aDb&quot;&gt;&lt;b style=&quot;&quot;&gt;&lt;font style=&quot;font-size: 22px;&quot;&gt;What are the 4 types of software maintenance?&lt;/font&gt;&lt;/b&gt;&lt;/div&gt;&lt;div style=&quot;padding: 0px 20px; color: rgb(32, 33, 36); font-family: &amp;quot;Google Sans&amp;quot;, arial, sans-serif; background-color: rgb(255, 255, 255); font-size: 22px;&quot; class=&quot;RqBzHd&quot;&gt;&lt;ul style=&quot;margin: 0px; padding: 0px;&quot; class=&quot;i8Z77e&quot;&gt;&lt;li style=&quot;margin: 0px 0px 4px; padding: 0px; list-style-type: disc;&quot; class=&quot;TrT0Xe&quot;&gt;&lt;font style=&quot;font-size: 22px;&quot;&gt;Corrective Software Maintenance. Corrective software maintenance is the typical, classic form of maintenance (for software and anything else for that matter).&amp;nbsp;&lt;/font&gt;&lt;/li&gt;&lt;li style=&quot;margin: 0px 0px 4px; padding: 0px; list-style-type: disc;&quot; class=&quot;TrT0Xe&quot;&gt;&lt;font style=&quot;font-size: 22px;&quot;&gt;Preventative Software Maintenance.&amp;nbsp;&lt;/font&gt;&lt;/li&gt;&lt;li style=&quot;margin: 0px 0px 4px; padding: 0px; list-style-type: disc;&quot; class=&quot;TrT0Xe&quot;&gt;&lt;font style=&quot;font-size: 22px;&quot;&gt;Perfective Software Maintenance.&amp;nbsp;&lt;/font&gt;&lt;/li&gt;&lt;li style=&quot;margin: 0px 0px 4px; padding: 0px; list-style-type: disc;&quot; class=&quot;TrT0Xe&quot;&gt;&lt;font style=&quot;font-size: 22px;&quot;&gt;Adaptive Software Maintenance.&lt;/font&gt;&lt;/li&gt;&lt;/ul&gt;&lt;/div&gt;" style="rounded=0;whiteSpace=wrap;html=1;align=left;" vertex="1" parent="1">
          <mxGeometry x="375" y="3290" width="500" height="360" as="geometry" />
        </mxCell>
        <mxCell id="6SsORGKHlJ1H8XkOjhuN-15" value="" style="group" vertex="1" connectable="0" parent="1">
          <mxGeometry x="375" y="3670" width="500" height="820" as="geometry" />
        </mxCell>
        <mxCell id="6SsORGKHlJ1H8XkOjhuN-16" value="&lt;font style=&quot;&quot;&gt;&lt;u style=&quot;border-color: var(--border-color); font-size: 17px;&quot;&gt;What we Offer 1&lt;br style=&quot;border-color: var(--border-color);&quot;&gt;&lt;/u&gt;&lt;span style=&quot;font-size: 17px;&quot;&gt;Overview of a type of maintenance offering&lt;/span&gt;&lt;br&gt;&lt;font style=&quot;font-size: 20px;&quot;&gt;&lt;b&gt;More texts below&lt;/b&gt;&lt;/font&gt;&lt;br&gt;&lt;/font&gt;" style="rounded=0;whiteSpace=wrap;html=1;" vertex="1" parent="6SsORGKHlJ1H8XkOjhuN-15">
          <mxGeometry width="500" height="260" as="geometry" />
        </mxCell>
        <mxCell id="6SsORGKHlJ1H8XkOjhuN-17" value="&lt;font style=&quot;font-size: 18px;&quot;&gt;&lt;u style=&quot;border-color: var(--border-color);&quot;&gt;What we Offer 3&lt;br style=&quot;border-color: var(--border-color);&quot;&gt;&lt;/u&gt;&lt;font style=&quot;border-color: var(--border-color); font-size: 18px;&quot;&gt;&lt;span style=&quot;border-color: var(--border-color);&quot;&gt;Overview of a type of maintenance offering&lt;br style=&quot;border-color: var(--border-color); font-size: 12px;&quot;&gt;&lt;b&gt;More texts below&lt;/b&gt;&lt;/span&gt;&lt;/font&gt;&lt;br&gt;&lt;/font&gt;" style="rounded=0;whiteSpace=wrap;html=1;" vertex="1" parent="6SsORGKHlJ1H8XkOjhuN-15">
          <mxGeometry y="560" width="500" height="260" as="geometry" />
        </mxCell>
        <mxCell id="6SsORGKHlJ1H8XkOjhuN-18" value="&lt;font style=&quot;font-size: 18px;&quot;&gt;&lt;u style=&quot;border-color: var(--border-color);&quot;&gt;What we Offer 2&lt;br style=&quot;border-color: var(--border-color);&quot;&gt;&lt;/u&gt;&lt;font style=&quot;border-color: var(--border-color); font-size: 18px;&quot;&gt;&lt;span style=&quot;border-color: var(--border-color);&quot;&gt;Overview of a type of maintenance offering&lt;br style=&quot;border-color: var(--border-color); font-size: 12px;&quot;&gt;&lt;b&gt;More texts below&lt;/b&gt;&lt;/span&gt;&lt;/font&gt;&lt;br&gt;&lt;/font&gt;" style="rounded=0;whiteSpace=wrap;html=1;" vertex="1" parent="6SsORGKHlJ1H8XkOjhuN-15">
          <mxGeometry y="280" width="500" height="260" as="geometry" />
        </mxCell>
        <mxCell id="6SsORGKHlJ1H8XkOjhuN-19" value="" style="group" vertex="1" connectable="0" parent="1">
          <mxGeometry x="375" y="4530" width="500" height="550" as="geometry" />
        </mxCell>
        <mxCell id="6SsORGKHlJ1H8XkOjhuN-20" value="" style="rounded=1;whiteSpace=wrap;html=1;" vertex="1" parent="6SsORGKHlJ1H8XkOjhuN-19">
          <mxGeometry width="500" height="550" as="geometry" />
        </mxCell>
        <mxCell id="6SsORGKHlJ1H8XkOjhuN-21" value="" style="group" vertex="1" connectable="0" parent="6SsORGKHlJ1H8XkOjhuN-19">
          <mxGeometry x="35" y="30" width="430" height="360" as="geometry" />
        </mxCell>
        <mxCell id="6SsORGKHlJ1H8XkOjhuN-22" value="" style="rounded=0;whiteSpace=wrap;html=1;" vertex="1" parent="6SsORGKHlJ1H8XkOjhuN-21">
          <mxGeometry y="150" width="430" height="210" as="geometry" />
        </mxCell>
        <mxCell id="6SsORGKHlJ1H8XkOjhuN-23" value="Home" style="rounded=0;whiteSpace=wrap;html=1;fontStyle=1;fontSize=17;" vertex="1" parent="6SsORGKHlJ1H8XkOjhuN-21">
          <mxGeometry width="430" height="40" as="geometry" />
        </mxCell>
        <mxCell id="6SsORGKHlJ1H8XkOjhuN-24" value="Site Plan" style="rounded=0;whiteSpace=wrap;html=1;fontStyle=1;fontSize=17;" vertex="1" parent="6SsORGKHlJ1H8XkOjhuN-21">
          <mxGeometry y="50" width="430" height="40" as="geometry" />
        </mxCell>
        <mxCell id="6SsORGKHlJ1H8XkOjhuN-25" value="Software Development" style="rounded=0;whiteSpace=wrap;html=1;fontStyle=1;fontSize=17;" vertex="1" parent="6SsORGKHlJ1H8XkOjhuN-21">
          <mxGeometry y="100" width="430" height="40" as="geometry" />
        </mxCell>
        <mxCell id="6SsORGKHlJ1H8XkOjhuN-26" value="" style="endArrow=none;html=1;rounded=0;exitX=0;exitY=1;exitDx=0;exitDy=0;entryX=1;entryY=0;entryDx=0;entryDy=0;" edge="1" parent="6SsORGKHlJ1H8XkOjhuN-21" source="6SsORGKHlJ1H8XkOjhuN-22" target="6SsORGKHlJ1H8XkOjhuN-22">
          <mxGeometry width="50" height="50" relative="1" as="geometry">
            <mxPoint x="555" y="3690" as="sourcePoint" />
            <mxPoint x="605" y="3640" as="targetPoint" />
          </mxGeometry>
        </mxCell>
        <mxCell id="6SsORGKHlJ1H8XkOjhuN-27" value="" style="endArrow=none;html=1;rounded=0;exitX=0;exitY=1;exitDx=0;exitDy=0;entryX=1;entryY=0;entryDx=0;entryDy=0;" edge="1" parent="6SsORGKHlJ1H8XkOjhuN-21">
          <mxGeometry width="50" height="50" relative="1" as="geometry">
            <mxPoint x="430" y="360" as="sourcePoint" />
            <mxPoint y="150" as="targetPoint" />
          </mxGeometry>
        </mxCell>
        <mxCell id="6SsORGKHlJ1H8XkOjhuN-28" value="Facebook" style="rounded=0;whiteSpace=wrap;html=1;" vertex="1" parent="6SsORGKHlJ1H8XkOjhuN-19">
          <mxGeometry x="35" y="410" width="120" height="40" as="geometry" />
        </mxCell>
        <mxCell id="6SsORGKHlJ1H8XkOjhuN-29" value="Instagram" style="rounded=0;whiteSpace=wrap;html=1;" vertex="1" parent="6SsORGKHlJ1H8XkOjhuN-19">
          <mxGeometry x="345" y="410" width="120" height="40" as="geometry" />
        </mxCell>
        <mxCell id="6SsORGKHlJ1H8XkOjhuN-30" value="Twitter" style="rounded=0;whiteSpace=wrap;html=1;" vertex="1" parent="6SsORGKHlJ1H8XkOjhuN-19">
          <mxGeometry x="190" y="410" width="120" height="40" as="geometry" />
        </mxCell>
        <mxCell id="6SsORGKHlJ1H8XkOjhuN-31" value="@ 2023" style="rounded=0;whiteSpace=wrap;html=1;flipH=0;" vertex="1" parent="6SsORGKHlJ1H8XkOjhuN-19">
          <mxGeometry x="115" y="470" width="120" height="60" as="geometry" />
        </mxCell>
        <mxCell id="6SsORGKHlJ1H8XkOjhuN-32" value="" style="group" vertex="1" connectable="0" parent="6SsORGKHlJ1H8XkOjhuN-19">
          <mxGeometry x="275" y="470" width="90" height="60" as="geometry" />
        </mxCell>
        <mxCell id="6SsORGKHlJ1H8XkOjhuN-33" value="&lt;b&gt;&lt;font style=&quot;font-size: 48px;&quot;&gt;US&lt;/font&gt;&lt;/b&gt;" style="rounded=0;whiteSpace=wrap;html=1;" vertex="1" parent="6SsORGKHlJ1H8XkOjhuN-32">
          <mxGeometry x="20" width="70" height="60" as="geometry" />
        </mxCell>
        <mxCell id="6SsORGKHlJ1H8XkOjhuN-34" value="&lt;font color=&quot;#e6e6e6&quot; style=&quot;font-size: 9px; background-color: rgb(102, 102, 102);&quot;&gt;CONTACT&lt;/font&gt;" style="rounded=0;whiteSpace=wrap;html=1;rotation=-90;" vertex="1" parent="6SsORGKHlJ1H8XkOjhuN-19">
          <mxGeometry x="345" y="490" width="60" height="20" as="geometry" />
        </mxCell>
        <mxCell id="6SsORGKHlJ1H8XkOjhuN-35" value="" style="group" vertex="1" connectable="0" parent="1">
          <mxGeometry x="370" y="2260" width="505" height="460" as="geometry" />
        </mxCell>
        <mxCell id="6SsORGKHlJ1H8XkOjhuN-36" value="" style="ellipse;whiteSpace=wrap;html=1;aspect=fixed;container=0;" vertex="1" parent="6SsORGKHlJ1H8XkOjhuN-35">
          <mxGeometry x="215" y="20" width="80" height="80" as="geometry" />
        </mxCell>
        <mxCell id="6SsORGKHlJ1H8XkOjhuN-37" value="" style="endArrow=none;html=1;rounded=0;" edge="1" parent="6SsORGKHlJ1H8XkOjhuN-35">
          <mxGeometry width="50" height="50" relative="1" as="geometry">
            <mxPoint x="225" y="90" as="sourcePoint" />
            <mxPoint x="285" y="30" as="targetPoint" />
          </mxGeometry>
        </mxCell>
        <mxCell id="6SsORGKHlJ1H8XkOjhuN-38" value="" style="endArrow=none;html=1;rounded=0;" edge="1" parent="6SsORGKHlJ1H8XkOjhuN-35">
          <mxGeometry width="50" height="50" relative="1" as="geometry">
            <mxPoint x="285" y="90" as="sourcePoint" />
            <mxPoint x="225" y="30" as="targetPoint" />
          </mxGeometry>
        </mxCell>
        <mxCell id="6SsORGKHlJ1H8XkOjhuN-39" value="" style="endArrow=none;html=1;rounded=0;strokeWidth=4;" edge="1" parent="6SsORGKHlJ1H8XkOjhuN-35">
          <mxGeometry width="50" height="50" relative="1" as="geometry">
            <mxPoint x="5" y="112.5" as="sourcePoint" />
            <mxPoint x="505" y="112.5" as="targetPoint" />
          </mxGeometry>
        </mxCell>
        <mxCell id="6SsORGKHlJ1H8XkOjhuN-40" value="" style="rounded=1;whiteSpace=wrap;html=1;imageWidth=26;imageHeight=26;container=0;" vertex="1" parent="6SsORGKHlJ1H8XkOjhuN-35">
          <mxGeometry width="500" height="460" as="geometry" />
        </mxCell>
        <mxCell id="6SsORGKHlJ1H8XkOjhuN-41" value="" style="rounded=1;whiteSpace=wrap;html=1;container=0;" vertex="1" parent="6SsORGKHlJ1H8XkOjhuN-35">
          <mxGeometry y="140" width="500" height="290" as="geometry" />
        </mxCell>
        <mxCell id="6SsORGKHlJ1H8XkOjhuN-42" value="" style="endArrow=none;html=1;rounded=0;exitX=0.969;exitY=0.962;exitDx=0;exitDy=0;exitPerimeter=0;entryX=0.025;entryY=0.048;entryDx=0;entryDy=0;entryPerimeter=0;" edge="1" parent="6SsORGKHlJ1H8XkOjhuN-35" source="6SsORGKHlJ1H8XkOjhuN-41" target="6SsORGKHlJ1H8XkOjhuN-41">
          <mxGeometry width="50" height="50" relative="1" as="geometry">
            <mxPoint x="539" y="782.5" as="sourcePoint" />
            <mxPoint x="70" y="513.5" as="targetPoint" />
            <Array as="points" />
          </mxGeometry>
        </mxCell>
        <mxCell id="6SsORGKHlJ1H8XkOjhuN-43" value="" style="endArrow=none;html=1;rounded=0;exitX=0.969;exitY=0.962;exitDx=0;exitDy=0;exitPerimeter=0;entryX=0.964;entryY=0.024;entryDx=0;entryDy=0;entryPerimeter=0;" edge="1" parent="6SsORGKHlJ1H8XkOjhuN-35">
          <mxGeometry width="50" height="50" relative="1" as="geometry">
            <mxPoint x="11.5" y="416.5" as="sourcePoint" />
            <mxPoint x="488.5" y="158.5" as="targetPoint" />
          </mxGeometry>
        </mxCell>
        <mxCell id="6SsORGKHlJ1H8XkOjhuN-44" value="" style="rounded=1;whiteSpace=wrap;html=1;container=0;" vertex="1" parent="6SsORGKHlJ1H8XkOjhuN-35">
          <mxGeometry y="175" width="320" height="220" as="geometry" />
        </mxCell>
        <mxCell id="6SsORGKHlJ1H8XkOjhuN-45" value="&lt;font face=&quot;Comic Sans MS&quot;&gt;&lt;b&gt;RainMaykr Soft-solution&lt;/b&gt;&lt;/font&gt;" style="rounded=0;whiteSpace=wrap;html=1;container=0;" vertex="1" parent="6SsORGKHlJ1H8XkOjhuN-35">
          <mxGeometry x="71.11111111111109" y="195" width="177.77777777777777" height="30" as="geometry" />
        </mxCell>
        <mxCell id="6SsORGKHlJ1H8XkOjhuN-46" value="&lt;b&gt;WDD130 -A7&lt;/b&gt;" style="rounded=0;whiteSpace=wrap;html=1;container=0;" vertex="1" parent="6SsORGKHlJ1H8XkOjhuN-35">
          <mxGeometry x="102.22222222222217" y="305" width="106.66666666666666" height="40" as="geometry" />
        </mxCell>
        <mxCell id="6SsORGKHlJ1H8XkOjhuN-47" value="&lt;b&gt;Dominic Abah&lt;/b&gt;" style="rounded=0;whiteSpace=wrap;html=1;container=0;" vertex="1" parent="6SsORGKHlJ1H8XkOjhuN-35">
          <mxGeometry x="102.22222222222217" y="245" width="106.66666666666666" height="35" as="geometry" />
        </mxCell>
        <mxCell id="6SsORGKHlJ1H8XkOjhuN-48" value="Contact Us" style="rounded=0;whiteSpace=wrap;html=1;container=0;" vertex="1" parent="6SsORGKHlJ1H8XkOjhuN-35">
          <mxGeometry x="365" y="175" width="120" height="30" as="geometry" />
        </mxCell>
        <mxCell id="6SsORGKHlJ1H8XkOjhuN-49" value="Software Development" style="rounded=0;whiteSpace=wrap;html=1;container=0;" vertex="1" parent="6SsORGKHlJ1H8XkOjhuN-35">
          <mxGeometry x="360" y="365" width="120" height="30" as="geometry" />
        </mxCell>
        <mxCell id="6SsORGKHlJ1H8XkOjhuN-50" value="Home" style="rounded=0;whiteSpace=wrap;html=1;container=0;" vertex="1" parent="6SsORGKHlJ1H8XkOjhuN-35">
          <mxGeometry x="365" y="270" width="120" height="30" as="geometry" />
        </mxCell>
        <mxCell id="6SsORGKHlJ1H8XkOjhuN-51" value="" style="group" vertex="1" connectable="0" parent="6SsORGKHlJ1H8XkOjhuN-35">
          <mxGeometry x="208.89" y="30" width="80" height="80" as="geometry" />
        </mxCell>
        <mxCell id="6SsORGKHlJ1H8XkOjhuN-52" value="" style="ellipse;whiteSpace=wrap;html=1;aspect=fixed;" vertex="1" parent="6SsORGKHlJ1H8XkOjhuN-51">
          <mxGeometry width="80" height="80" as="geometry" />
        </mxCell>
        <mxCell id="6SsORGKHlJ1H8XkOjhuN-53" value="" style="endArrow=none;html=1;rounded=0;" edge="1" parent="6SsORGKHlJ1H8XkOjhuN-51">
          <mxGeometry width="50" height="50" relative="1" as="geometry">
            <mxPoint x="10" y="70" as="sourcePoint" />
            <mxPoint x="70" y="10" as="targetPoint" />
          </mxGeometry>
        </mxCell>
        <mxCell id="6SsORGKHlJ1H8XkOjhuN-54" value="" style="endArrow=none;html=1;rounded=0;" edge="1" parent="6SsORGKHlJ1H8XkOjhuN-51">
          <mxGeometry width="50" height="50" relative="1" as="geometry">
            <mxPoint x="70" y="70" as="sourcePoint" />
            <mxPoint x="10" y="10" as="targetPoint" />
          </mxGeometry>
        </mxCell>
        <mxCell id="6SsORGKHlJ1H8XkOjhuN-55" value="" style="endArrow=none;html=1;rounded=0;strokeWidth=4;" edge="1" parent="6SsORGKHlJ1H8XkOjhuN-35">
          <mxGeometry width="50" height="50" relative="1" as="geometry">
            <mxPoint x="2.5" y="120" as="sourcePoint" />
            <mxPoint x="502.5" y="120" as="targetPoint" />
          </mxGeometry>
        </mxCell>
      </root>
    </mxGraphModel>
  </diagram>
</mxfile>
